<?xml version="1.0" encoding="utf-8"?>
<!-- Generator: Adobe Illustrator 19.0.0, SVG Export Plug-In . SVG Version: 6.00 Build 0)  -->
<svg version="1.1" id="Layer_1" xmlns="http://www.w3.org/2000/svg" xmlns:xlink="http://www.w3.org/1999/xlink" x="0px" y="0px"
	 viewBox="-223 25 512 512" style="enable-background:new -223 25 512 512;" xml:space="preserve">
<style type="text/css">
	.st0{fill:#FFFFFF;}
	.st1{fill:none;}
</style>
<g>
	<path class="st0" d="M274.1,234.5H33v99h137.8c-5.9,32-24,59.1-51.1,77.3c-22.9,15.4-52.3,24.4-86.7,24.4
		c-66.7,0-123.1-45-143.2-105.5h0l0,0c-5.1-15.4-8-31.8-8-48.6s2.9-33.3,8-48.6C-90.1,171.9-33.7,126.8,33,126.8
		c37.6,0,71.3,12.9,97.9,38.3l73.4-73.4C159.9,50.4,102,25,33,25c-100.1,0-186.7,57.4-228.8,141h0c-17.3,34.6-27.2,73.7-27.2,115
		s9.9,80.4,27.2,115C-153.7,479.6-67.1,537,33,537c69.1,0,127.1-22.9,169.4-62l0,0h0c48.4-44.6,76.3-110.2,76.3-188.2
		C278.8,268.7,277.1,251.2,274.1,234.5z"/>
	<path class="st1" d="M-223,25h512v512h-512V25z"/>
</g>
</svg>
